<svg xmlns="http://www.w3.org/2000/svg" viewBox="0 0 120 120" fill="none">
  <defs>
    <linearGradient id="g1" x1="20" y1="10" x2="110" y2="110" gradientUnits="userSpaceOnUse">
      <stop stop-color="#7a2fb4" stop-opacity=".72" />
      <stop offset="1" stop-color="#f56ca0" stop-opacity=".45" />
    </linearGradient>
  </defs>
  <path
    d="M94 20c2 24-5 41-16 53-11 12-25 16-33 16-8 0-14-3-18-9-4-6-5-15-3-25l2-11c1-6 6-12 12-15 15-7 39-13 56-9Z"
    fill="url(#g1)"
    opacity=".22"
  />
  <path
    d="M49 47c5 5 9 8 14 9 5 1 10-1 15-4m-55 10c6-2 12-3 16-2 4 0 8 2 12 5"
    stroke="#7a2fb4"
    stroke-width="3"
    stroke-linecap="round"
    opacity=".5"
  />
</svg>
